<svg width="675" height="333" viewBox="0 0 675 333" fill="none" xmlns="http://www.w3.org/2000/svg">
<g clip-path="url(#clip0_14_193)">
<path d="M331.425 38.6361L331.222 38.9063H330.682L329.737 38.7037L328.927 39.5818L328.455 40.6625L328.117 41.1353H327.712L327.307 40.6625L326.97 39.987L326.902 38.9063L327.105 38.1633L327.037 37.0826L326.092 36.5422L323.595 34.4483L322.92 33.0974L323.865 32.0166L327.172 31.2061L328.32 30.328L329.062 29.3148L329.67 27.8964L330.075 28.0315L330.547 29.5175L331.087 30.6657L332.1 31.7465L332.842 32.7596L333.247 33.5702L333.045 34.043L332.37 34.3807L332.032 35.1237L331.357 35.6641L331.222 36.6773V37.6905L331.425 38.6361V38.6361Z" fill="#C9C9C9" stroke="#E7E7E7" stroke-width="2" stroke-linecap="round" stroke-linejoin="round"/>
<path d="M488.363 30.1929L488.97 32.2868L488.7 33.5702L488.295 33.7053H487.89L487.013 33.4351H486.675L486 33.9079L484.448 35.5966L484.178 36.272L483.84 37.758L483.503 38.2984L483.03 38.7037L481.41 39.244L480.195 39.5142L465.75 39.1765L465.008 39.3116L464.4 40.1221L464.063 41.2029L463.388 42.216L462.51 42.4862L460.553 42.216L457.718 41.0002L457.11 40.8651L456.638 41.0002L453.398 42.7564L452.52 42.959H451.845L449.955 42.2836L448.335 42.3511L444.488 41.473L443.88 41.4055L443.475 41.6081L443.138 41.9459L441.99 44.5801L441.248 44.9854L436.658 46.0661L432.405 48.025L431.055 48.8355L429.773 49.8487L426.465 53.9014L426.06 54.3067L424.575 55.3874L423.968 55.6576L423.428 55.7927L422.55 55.7252L421.808 55.5225L420.795 54.9146H419.378L410.873 57.0085L409.793 57.0761L405.203 56.6708L404.325 56.8059L403.785 57.1436L403.245 58.5621L402.233 59.3051L400.748 59.9806L399.938 60.5209L398.453 61.8043L397.643 62.0745L396.968 62.2771L396.09 62.3446L395.753 62.6148L395.618 63.0201V64.3035L395.28 65.3842L395.078 65.7219L394.538 66.1272L392.175 67.6807L391.028 68.2211L390.825 68.5588L390.015 69.5045L386.843 71.5984L385.965 71.8686L385.56 71.801L385.763 69.8422L385.695 69.3694L385.425 68.6264L384.885 68.0185L384.548 68.086L383.535 68.5588L379.08 69.6396L378.203 69.7071L377.73 69.572L375.233 68.3562L374.355 68.5588L373.613 69.0992L371.858 69.7071L371.183 69.8422L361.868 69.4369L359.438 68.6264L358.493 68.8966L358.223 69.1668L357.413 69.8422L355.455 70.5177L353.835 68.4913L353.228 68.2211L352.688 68.1536L351.878 68.8966L351.068 69.2343L342.225 70.6528L341.55 71.058L342.698 74.03L345.533 78.6231L346.005 79.7039L346.073 80.582L345.735 80.8521L345.33 80.9197L344.858 80.7846L343.508 80.2442H343.035L338.31 80.7171L337.095 81.325L334.733 84.5672L333.315 86.6611L332.505 86.7286L332.033 85.5128L331.695 85.1751L330.278 85.1075L319.478 86.7962L318.803 86.5935L317.79 86.1207L315.36 85.7154H313.875L312.998 86.0532L312.795 86.8637L311.715 93.7534L311.783 94.6315L311.918 95.5771L313.47 95.9824L314.01 96.2526L314.415 96.7929V97.4008L313.673 97.9412L313.065 98.4816L312.323 99.5623L311.783 100.508L311.58 101.318L311.513 102.332L311.783 103.683L311.715 104.358L311.445 105.033L309.893 106.722L309.42 107.465L309.218 108.005L309.15 108.613L309.285 110.032L309.083 110.64L308.678 111.18L308.003 111.721L307.328 112.058H306.855L306.113 111.721L305.303 111.045L304.695 110.91L304.29 111.045L302.603 112.261L302.063 112.801L301.793 113.342L301.658 114.017L301.32 116.043L301.05 116.516L300.645 116.854L300.105 116.651L299.768 115.976L299.633 114.963L299.97 113.139L299.903 112.126L299.498 111.653H299.16L297.675 112.126L296.663 112.193L295.718 111.788L294.975 111.045L294.3 109.762L293.423 108.884L293.153 108.478L292.613 106.992L292.005 105.979L289.508 108.005L288.36 108.478L287.348 108.411L280.058 109.154L279.045 105.709L278.438 104.561L277.56 104.088L277.02 103.953L275.738 103.683L275.198 103.615L274.455 103.818L273.038 104.561L272.7 104.831L271.823 105.912L271.553 106.182L271.013 106.452L270.068 106.587L269.393 106.519L263.79 104.29L262.98 104.155L262.103 104.223L260.28 104.628H259.403L257.445 103.818L256.163 103.615L254.408 104.088L254.003 103.683L253.598 102.061L253.328 101.318L252.72 100.575L252.18 100.103L251.1 99.4272L250.358 99.157L249.683 98.9544H248.67L248.265 98.7517L247.388 97.8061L246.645 97.5359L243.945 97.0631L240.773 95.8473L239.963 95.6447H239.288L238.883 95.7797L238.41 95.2394L238.005 94.1586L238.613 92.9428L238.815 92.47L238.68 91.9296L238.208 91.5919L235.98 90.9165L235.575 90.5787L235.373 90.1734V89.1603L235.913 86.6611L236.115 86.0532L236.52 85.5803L237.195 85.3102L239.22 85.3777L240.03 85.2426L240.705 84.6347L241.38 83.7566L241.853 83.3513L243.608 82.4732L245.025 82.068L246.173 81.9329L247.32 81.5952L248.198 81.4601L249.345 81.6627L250.088 81.9329L250.965 82.1355L251.91 82.0004L254.273 80.9872L255.353 80.7171L256.77 80.6495L259.065 80.9872L259.538 81.1899L261.225 82.1355H262.238L263.52 81.7978L267.233 80.1767L268.11 79.7039L269.865 77.3398L270 75.9889L270.338 75.2459L271.35 73.8274L272.97 72.2739L273.24 71.801L273.443 71.1256L273.375 70.1799L273.24 69.572L272.43 68.4238L271.485 68.2211L269.73 68.4238H269.123L268.11 68.086L267.503 67.5457L267.165 66.8027L266.76 65.3842L266.558 65.114H266.288L265.815 65.7219L265.545 66.4649L265.41 67.4781L265.68 68.6939L265.208 69.6396L263.723 71.058L261.968 70.7879L257.58 62.2771L256.635 59.6428L256.163 56.8734L256.298 53.6988L257.04 50.7943L260.28 43.4319L261.9 39.8519L262.103 38.5686L261.9 37.015L261.158 34.2457L261.023 32.8272L261.225 31.4087L261.698 30.1929L262.98 27.9639L265.275 21.2094L266.018 19.926L266.963 19.1154L269.865 17.4268L280.328 13.0363L281.34 12.7661L283.905 12.9012L286.2 11.6854L288.225 5.87649L290.048 4.45803L291.33 4.86331L293.49 7.02477L294.638 7.36249L304.223 6.21422L305.235 5.60631L305.438 4.45803L304.763 2.97203L303.075 0.675476L304.898 1.68866L308.003 4.52558L309.69 5.26858L311.715 5.7414L313.47 6.61949L316.643 9.25377L317.858 9.92923L320.423 10.1994L322.65 11.6179L325.148 12.3609L326.295 12.9688L327.105 14.0495L328.658 16.7513L329.535 17.7645L335.813 22.6278L337.905 23.4384L344.858 24.6542L350.123 27.2209L351.878 28.7745L353.565 29.6526L357.278 30.8008L359.033 31.814L360.45 32.9623L364.163 35.1913L365.783 35.5966L369.833 35.529L383.603 37.3528L385.965 37.0826L387.18 37.2177L391.163 38.9063L392.715 38.8388L394.47 38.0282L396.225 36.8124L397.71 35.2588L398.318 34.1781L400.343 28.842L401.018 28.2341L401.963 27.9639L405.743 27.6937L408.105 28.0315L412.898 29.4499L414.248 29.5175L418.298 28.1666L419.85 28.099L424.305 29.2473H429.84L435.105 30.8684L435.78 30.7333L436.995 30.1929L437.738 30.1254L438.345 30.5306L439.02 31.8816L439.628 32.2193L440.708 31.8816L442.53 30.0578L443.678 29.585L445.298 29.7876L448.47 31.1386L450.023 31.4087L451.305 31.1386L453.668 30.0578L456.368 30.1254L457.583 29.8552L459.878 28.5718L460.148 28.3016L460.35 27.5586L460.823 27.4911L461.903 27.6937H462.308L462.78 27.4235L464.063 25.87L465.21 24.9919L466.425 24.7893H469.125L471.555 23.7761L472.77 23.5734L473.985 24.1138L480.87 25.2621L482.963 26.0726L483.638 26.6805L485.393 29.1797L486.338 29.9227L487.283 30.1254L488.363 30.1929V30.1929ZM331.425 38.6361L331.223 37.6905V36.6773L331.358 35.6641L332.033 35.1238L332.37 34.3808L333.045 34.043L333.248 33.5702L332.843 32.7597L332.1 31.7465L331.088 30.6657L330.548 29.5175L330.075 28.0315L329.67 27.8964L329.063 29.3148L328.32 30.328L327.173 31.2061L323.865 32.0167L322.92 33.0974L323.595 34.4483L326.093 36.5422L327.038 37.0826L327.105 38.1633L326.903 38.9063L326.97 39.987L327.308 40.6625L327.713 41.1353H328.118L328.455 40.6625L328.928 39.5818L329.738 38.7037L330.683 38.9063H331.223L331.425 38.6361V38.6361Z" fill="#C9C9C9" stroke="#E7E7E7" stroke-width="2" stroke-linecap="round" stroke-linejoin="round"/>
<path d="M550.598 173.39L549.315 172.512L548.64 171.633L548.303 170.958L547.83 169.675L547.358 168.459L546.953 167.851L546.48 167.446L545.333 166.973H544.32L543.645 167.311L542.295 168.121L541.418 168.864L538.65 170.418L537.165 170.823L534.263 171.161H529.74L521.91 169.067L516.173 169.134L515.363 168.999L514.823 168.729L514.62 168.391L514.418 167.581V166.703L514.688 165.757L515.498 163.933L515.565 162.988L515.363 162.515L514.823 162.042L513.878 161.839L511.853 161.772L511.178 161.907L509.085 162.92L499.028 165.757L497.07 166.027L496.8 165.757V165.419L497.003 165.014L497.88 164.203L498.42 163.528L498.623 163.055L499.298 160.421L499.433 159.475L499.635 158.597L500.648 157.111L500.85 156.436L500.783 156.098L499.973 155.355L497.948 154.072L494.843 152.653L493.965 151.775L493.898 150.897L493.628 149.276L492.683 146.709L492.885 146.371L493.56 146.709L494.1 146.777L494.505 146.574L494.978 146.169L496.058 143.332L496.53 141.305L496.868 137.861L496.395 136.307H495.788L494.843 136.983L493.628 137.455L491.603 137.996L491.13 138.266L489.915 139.144L489.038 139.549L488.43 139.684L477.428 139.955L473.985 139.076L469.665 138.671H468.923L468.18 138.941L466.29 139.819L465.008 140.157L463.59 140.292L460.553 139.887L460.08 139.684L459.675 139.482L459.338 138.739L458.663 138.063L457.92 137.726H457.448L456.3 138.198L455.288 138.469L454.883 138.333L454.68 137.996L455.018 137.185L456.03 135.699L456.705 134.416L457.11 132.93L457.245 131.511L457.583 130.498L457.785 130.025L458.73 128.472L458.933 128.067L459.203 126.581V125.702L458.798 125.027L457.448 124.149L455.828 123.271L454.883 123.001L454.208 122.798L453.803 122.933L452.79 123.473L451.575 123.744L443.408 123.338L443.138 123.068L442.868 122.19L441.855 120.974L442.8 119.218L443.408 118.678L444.15 118.272L444.623 118.137L445.973 118.002L449.82 118.272L451.71 118.07L452.25 117.732L452.52 117.327L452.723 115.503L453.263 113.477L454.478 110.775L454.275 110.505H453.6L452.183 111.248L451.305 111.315L450.36 111.045L448.403 110.302L443.408 107.6L442.463 107.398L437.94 107.262L437.468 107.195L435.645 106.452L434.295 105.574L431.933 104.898L430.988 104.831L429.503 105.371L428.625 105.439L427.95 105.169L427.073 104.696L425.588 103.547L424.778 103.075L424.17 102.872L423.833 102.94L422.348 103.615L417.69 104.966L416.61 105.033L415.665 104.763L415.328 104.358L415.125 103.953L415.395 103.075L415.935 102.399L417.285 101.521L418.5 100.44L419.108 99.8325L419.513 99.0219L419.85 97.5359V96.928L419.715 96.2525L419.108 95.2394L418.163 94.3613L415.935 92.8753L415.463 92.3349L415.26 91.8621L415.395 90.7813L415.328 90.1734L415.058 89.7682L414.045 89.498L413.573 89.2953L413.303 88.9576L413.235 88.0795L413.573 86.0532L413.708 85.5803L414.72 82.6759L414.788 81.6627L414.518 80.8521L414.18 80.0416L413.438 79.231L412.358 78.488L412.02 77.6775V76.7994L411.818 75.5836L411.548 74.6379L411.143 74.1651L410.603 73.8949L409.05 73.4897H408.173L407.903 73.8274L407.498 74.6379L407.025 75.3809L406.485 75.8538L405.405 76.3941L400.95 76.6643L400.41 76.5968L399.87 75.9889L398.925 74.03L398.183 73.287L396.428 72.4765L396.023 72.2063L395.145 71.8686L393.593 71.7335L393.12 71.1256L392.31 68.4237L392.175 67.6807L394.538 66.1272L395.078 65.7219L395.28 65.3842L395.618 64.3035V63.0201L395.753 62.6148L396.09 62.3446L396.968 62.2771L397.643 62.0745L398.453 61.8043L399.938 60.5209L400.748 59.9805L402.233 59.3051L403.245 58.5621L403.785 57.1436L404.325 56.8059L405.203 56.6708L409.793 57.0761L410.873 57.0085L419.378 54.9146H420.795L421.808 55.5225L422.55 55.7252L423.428 55.7927L423.968 55.6576L424.575 55.3874L426.06 54.3067L426.465 53.9014L429.773 49.8487L431.055 48.8355L432.405 48.025L436.658 46.0661L441.248 44.9854L441.99 44.5801L443.138 41.9459L443.475 41.6081L443.88 41.4055L444.488 41.473L448.335 42.3511L449.955 42.2836L451.845 42.959H452.52L453.398 42.7564L456.638 41.0002L457.11 40.8651L457.718 41.0002L460.553 42.216L462.51 42.4862L463.388 42.216L464.063 41.2029L464.4 40.1221L465.008 39.3116L465.75 39.1765L480.195 39.5142L481.41 39.244L483.03 38.7037L483.503 38.2984L483.84 37.758L484.178 36.272L484.448 35.5966L486 33.9079L486.675 33.4351H487.013L487.89 33.7053H488.295L488.7 33.5702L488.97 32.2868L488.363 30.1929H489.443L495.45 31.2061L497.408 30.5982L500.04 29.3148L500.985 29.1122L501.863 29.1797L503.618 29.7876H506.048L507.195 30.3956L508.275 31.2736L509.49 32.0166H510.503L513.675 30.4631L514.958 30.1929L519.008 30.328L523.125 31.3412L523.463 31.8816L523.733 32.4219L524.138 32.8947L524.88 33.3676L526.433 32.6921L527.445 32.0166L527.985 31.7465L529.403 31.5438L530.753 31.7465L532.17 32.2193L535.613 34.3132L538.313 34.786L544.86 34.1781L547.695 34.3132L550.463 33.9079L551.678 34.1106L554.175 35.0562L555.458 35.1237L556.538 34.7185L558.698 33.3L559.98 32.8272L562.68 32.6246L566.73 33.0298L572.738 35.1237L575.235 36.6097L577.395 38.4335L578.408 38.9738L585.833 39.7168L590.693 41.7432L594.743 41.9459L597.105 42.8915L599.4 43.0266L604.193 40.5949L606.555 40.1221L608.108 40.5274L608.58 41.4055L608.243 44.5801L608.31 46.539L608.648 48.2276L609.255 49.7811L610.133 51.3347L612.293 53.4962L617.153 55.7927L619.11 57.8866L621.878 64.5736L623.498 66.8026L626.603 68.1536L632.475 68.4913L637.403 67.5456L640.035 67.6132L653.603 70.5852L656.168 72.3414L656.978 73.287L659.34 76.7994L663.323 80.4469L665.348 83.0811L666.968 85.9181L668.79 88.4172L671.423 90.0383L671.828 91.2542L672.03 93.956L672.3 95.3069L672.975 96.5227L673.718 97.5359L674.258 98.6842L674.325 100.305L672.705 102.872L669.735 103.953L654.345 103.75L651.24 104.561L649.013 105.506L648 106.317L647.19 107.533L646.65 108.951L645.908 111.991L645.368 113.477L643.208 115.571L640.44 115.976L637.605 115.908L634.838 116.584L631.395 119.015L627.413 120.501L622.62 123.879L621.405 124.352H619.988L616.073 123.136L614.79 123.473L613.71 124.216L610.808 126.918L609.525 127.864L608.175 128.472L605.34 129.147L602.978 130.093L596.093 135.091L592.38 135.767L591.233 136.375L585.765 140.292L577.53 143.534L576.653 144.007L575.843 144.75L575.37 145.628L574.898 147.655L574.29 148.465L572.13 149.479L567.608 150.424L561.938 154.815L559.508 155.963L558.428 156.706L557.415 157.989L557.213 159.408L558.225 162.582L558.428 164.068L557.82 165.419L556.673 166.365L554.243 167.851L553.298 168.797L551.745 171.093L550.598 173.39V173.39Z" fill="#C9C9C9" stroke="#E7E7E7" stroke-width="2" stroke-linecap="round" stroke-linejoin="round"/>
<path d="M550.598 173.39L548.977 176.564L548.1 177.848L547.223 178.861L541.013 184.197L539.933 184.602L538.717 184.467L536.288 183.386L528.323 182.238L526.163 182.306L524.07 182.981L516.038 187.304L515.092 187.642L513.945 187.777L510.84 187.574L506.115 188.925L504.427 188.858L502.605 187.912L499.163 186.426L495.72 185.75L493.763 185.818L490.252 186.966L482.625 186.426L480.803 185.818L477.563 184.129L475.875 183.792L469.328 185.345L466.898 186.358L465.345 187.912L464.467 189.195L462.173 190.884L461.16 191.897L460.553 193.451L460.823 195.004L461.228 196.558L461.43 198.179L460.89 199.8L459.945 200.813L457.515 202.164L455.49 203.988L453.87 206.419L452.858 209.324L452.453 217.497L452.25 218.848L451.575 219.996L448.335 222.495L446.783 224.995L444.825 230.668L443.408 232.965L441.72 234.586L436.455 238.098L434.498 240.057L433.485 240.395L432.608 239.382L431.663 234.451L431.055 233.1L429.233 232.56L427.478 234.518L425.655 237.153L423.563 238.436L422.415 238.166L420.12 236.883L418.973 236.477L417.488 236.612L412.02 239.314L411.21 240.395L410.535 241.813L409.523 243.164L408.308 243.975L407.025 244.245L405.675 244.177L401.76 243.164L400.41 243.097L399.128 243.232L396.292 244.448L394.875 244.583L393.863 243.434L393.323 242.016L392.378 238.504L392.242 236.95L392.715 235.397L393.525 234.316L394.133 233.235L393.998 231.817L393.39 230.939L391.703 229.317L391.028 228.304L390.555 226.751L390.217 222.225L389.138 218.78L387.45 217.092H385.223L382.658 218.645L369.36 229.385L368.753 229.723L368.01 229.925L367.267 230.196L366.93 230.803L366.728 231.614L366.255 232.289L365.108 232.56L363.96 231.952L362.813 231.209L361.665 230.736L360.18 230.939L357.21 232.357L355.658 232.56L353.43 232.019L351.203 231.074L345.87 227.426L344.52 226.751L343.238 226.886L343.035 227.156L341.415 226.481L336.69 226.548L335.61 226.413L334.868 226.21L334.53 225.94L333.585 224.657L329.063 223.914L328.185 223.441L327.713 222.968L328.32 221.144L328.388 220.672V219.793L327.848 218.713L327.038 217.902L326.363 217.497L317.925 214.39L316.643 213.579L314.145 211.485L313.133 210.27L312.66 209.594L312.188 208.581L311.715 207.905L307.395 203.718L306.383 203.11L305.775 202.502L305.438 202.097L305.303 200.678L305.168 200.07L304.83 199.192L304.493 198.652L304.088 198.246L302.535 197.233L295.853 191.289L294.773 189.668L300.173 183.116L300.983 181.833L301.05 181.157L296.393 177.307L296.258 176.699L296.393 176.159L296.865 175.011L297.27 174.538L297.743 174.268L298.688 174.335H299.295L299.835 174.065L300.51 173.255L301.388 172.647L302.4 172.444L302.873 172.174L304.493 171.093L304.763 171.026L307.868 170.89L312.728 169.81L313.605 169.945L314.685 170.418L315.36 170.62L316.238 170.418L316.643 170.012L315.9 169.134L314.28 166.77L313.943 166.162L313.133 164.136V163.46L313.403 163.123L314.078 162.785L318.938 161.029L320.49 160.083L321.503 159.678L322.38 159.408L326.16 158.8L327.173 158.462L329.333 157.381L331.155 156.773L331.695 156.368L332.168 155.895L334.328 152.923L334.665 152.18L335.408 149.884L336.15 146.777L336.69 145.088L336.893 144.21L337.028 141.508L337.163 140.698L337.973 138.874L338.175 138.333L338.108 137.523L337.568 136.983L335.813 135.834H334.598L334.125 135.969L333.585 136.442L333.383 137.185L332.64 137.793L325.013 141.103L324 141.238L322.988 140.833L322.245 140.765L321.03 140.833L320.423 141.103L319.14 142.184L317.858 142.859L317.048 142.927L316.44 142.724L315.63 142.184L312.323 141.778L309.218 141.913L307.8 142.116L306.855 142.454L306.248 142.859H305.438L305.1 142.656L304.155 141.778L303.48 141.305L302.67 140.968L301.253 140.765L300.24 140.833L298.283 141.441L297.608 141.508L296.865 141.373L295.583 140.698L294.233 139.414L293.963 139.212L292.748 138.874L292.343 138.604L291.735 137.793L291.33 137.32L290.723 137.05L289.98 136.78L288.9 136.983L288.563 136.375L287.685 134.078L287.078 133.065H286.808L286.673 132.592L287.01 132.322L288.563 130.903L288.9 130.633L289.71 130.498L292.208 130.836L293.355 131.174L293.895 131.376L294.435 131.782L294.975 132.322L295.313 132.93L295.583 133.673L295.65 134.281V135.361L295.515 136.577L295.92 137.253L296.663 137.793L298.688 138.469L299.498 138.536L299.903 138.266V137.658L299.16 131.174L298.823 129.417L298.553 128.742L298.283 128.337L297.878 128.134L295.92 127.661L293.288 127.526L291.128 127.053L290.79 126.716V126.31L291.128 121.852L291.06 120.569L290.925 119.353L290.453 118.272L289.913 117.8L288.495 117.327L287.82 116.989L287.348 116.921L285.728 117.8L285.323 117.867L284.985 117.732L283.838 116.719L281.813 115.841L281.61 115.976L281.678 116.786L281.408 117.8L281.07 118.272L280.598 118.678L280.058 118.813L279.518 118.745L278.843 118.408L278.1 117.8L276.75 116.043L276.278 115.638L275.4 114.963L275.265 114.287L275.738 114.017H276.548L277.29 113.747L277.628 113.409L278.235 112.193L279.653 110.167L280.058 109.154L287.348 108.411L288.36 108.478L289.508 108.005L292.005 105.979L292.613 106.992L293.153 108.478L293.423 108.884L294.3 109.762L294.975 111.045L295.718 111.788L296.663 112.193L297.675 112.126L299.16 111.653H299.498L299.903 112.126L299.97 113.139L299.633 114.963L299.768 115.976L300.105 116.651L300.645 116.854L301.05 116.516L301.32 116.043L301.658 114.017L301.793 113.342L302.063 112.801L302.603 112.261L304.29 111.045L304.695 110.91L305.303 111.045L306.113 111.72L306.855 112.058H307.328L308.003 111.72L308.678 111.18L309.083 110.64L309.285 110.032L309.15 108.613L309.218 108.005L309.42 107.465L309.893 106.722L311.445 105.033L311.715 104.358L311.783 103.683L311.513 102.332L311.58 101.318L311.783 100.508L312.323 99.5623L313.065 98.4815L313.673 97.9412L314.415 97.4008V96.7929L314.01 96.2525L313.47 95.9824L311.918 95.5771L311.783 94.6314L311.715 93.7533L312.795 86.8637L312.998 86.0531L313.875 85.7154H315.36L317.79 86.1207L318.803 86.5935L319.478 86.7961L330.278 85.1075L331.695 85.175L332.033 85.5128L332.505 86.7286L333.315 86.6611L334.733 84.5671L337.095 81.3249L338.31 80.717L343.035 80.2442H343.508L344.858 80.7846L345.33 80.9197L345.735 80.8521L346.073 80.5819L346.005 79.7039L345.533 78.6231L342.698 74.03L341.55 71.058L342.225 70.6527L351.068 69.2343L351.878 68.8965L352.688 68.1535L353.228 68.2211L353.835 68.4913L355.455 70.5176L357.413 69.8422L358.223 69.1667L358.493 68.8965L359.438 68.6264L361.868 69.4369L371.183 69.8422L371.858 69.7071L373.613 69.0992L374.355 68.5588L375.233 68.3562L377.73 69.572L378.203 69.7071L379.08 69.6395L383.535 68.5588L384.548 68.086L384.885 68.0185L385.425 68.6264L385.695 69.3694L385.763 69.8422L385.56 71.801L385.965 71.8686L386.842 71.5984L390.015 69.5045L390.825 68.5588L391.028 68.2211L392.175 67.6807L392.31 68.4237L393.12 71.1256L393.592 71.7335L395.145 71.8686L396.023 72.2063L396.428 72.4765L398.183 73.287L398.925 74.03L399.87 75.9888L400.41 76.5968L400.95 76.6643L405.405 76.3941L406.485 75.8538L407.025 75.3809L407.498 74.6379L407.903 73.8274L408.173 73.4897H409.05L410.603 73.8949L411.142 74.1651L411.548 74.6379L411.817 75.5836L412.02 76.7994V77.6775L412.358 78.488L413.438 79.231L414.18 80.0416L414.517 80.8521L414.788 81.6627L414.72 82.6759L413.708 85.5803L413.573 86.0531L413.235 88.0795L413.303 88.9576L413.573 89.2953L414.045 89.498L415.058 89.7681L415.328 90.1734L415.395 90.7813L415.26 91.8621L415.463 92.3349L415.935 92.8752L418.163 94.3613L419.108 95.2393L419.715 96.2525L419.85 96.928V97.5359L419.513 99.0219L419.108 99.8325L418.5 100.44L417.285 101.521L415.935 102.399L415.395 103.075L415.125 103.953L415.328 104.358L415.665 104.763L416.61 105.033L417.69 104.966L422.348 103.615L423.833 102.94L424.17 102.872L424.778 103.075L425.588 103.547L427.073 104.696L427.95 105.169L428.625 105.439L429.503 105.371L430.988 104.831L431.933 104.898L434.295 105.574L435.645 106.452L437.467 107.195L437.94 107.262L442.463 107.398L443.408 107.6L448.403 110.302L450.36 111.045L451.305 111.315L452.183 111.248L453.6 110.505H454.275L454.478 110.775L453.263 113.477L452.723 115.503L452.52 117.327L452.25 117.732L451.71 118.07L449.82 118.272L445.973 118.002L444.623 118.137L444.15 118.272L443.408 118.678L442.8 119.218L441.855 120.974L442.867 122.19L443.138 123.068L443.408 123.338L451.575 123.744L452.79 123.473L453.803 122.933L454.208 122.798L454.883 123.001L455.828 123.271L457.448 124.149L458.798 125.027L459.203 125.702V126.581L458.933 128.067L458.73 128.472L457.785 130.025L457.583 130.498L457.245 131.511L457.11 132.93L456.705 134.416L456.03 135.699L455.017 137.185L454.68 137.996L454.883 138.333L455.288 138.469L456.3 138.198L457.448 137.726H457.92L458.663 138.063L459.338 138.739L459.675 139.482L460.08 139.684L460.553 139.887L463.59 140.292L465.008 140.157L466.29 139.819L468.18 138.941L468.923 138.671H469.665L473.985 139.076L477.428 139.955L488.43 139.684L489.038 139.549L489.915 139.144L491.13 138.266L491.602 137.996L493.627 137.455L494.842 136.983L495.788 136.307H496.395L496.867 137.861L496.53 141.305L496.058 143.332L494.977 146.169L494.505 146.574L494.1 146.777L493.56 146.709L492.885 146.371L492.683 146.709L493.627 149.276L493.898 150.897L493.965 151.775L494.842 152.653L497.948 154.072L499.973 155.355L500.783 156.098L500.85 156.436L500.648 157.111L499.635 158.597L499.433 159.475L499.298 160.421L498.623 163.055L498.42 163.528L497.88 164.203L497.002 165.014L496.8 165.419V165.757L497.07 166.027L499.027 165.757L509.085 162.92L511.177 161.907L511.852 161.772L513.877 161.839L514.823 162.042L515.363 162.515L515.565 162.988L515.498 163.933L514.688 165.757L514.417 166.703V167.581L514.62 168.391L514.823 168.729L515.363 168.999L516.173 169.134L521.91 169.067L529.74 171.161H534.263L537.165 170.823L538.65 170.418L541.417 168.864L542.295 168.121L543.645 167.311L544.32 166.973H545.333L546.48 167.446L546.952 167.851L547.358 168.459L547.83 169.675L548.302 170.958L548.64 171.633L549.315 172.512L550.598 173.39V173.39Z" fill="#C9C9C9" stroke="#E7E7E7" stroke-width="2" stroke-linecap="round" stroke-linejoin="round"/>
<path d="M170.843 246.947L173.07 246.812L176.04 245.663L181.44 244.177L182.385 244.313L182.993 244.92L183.465 246.136L183.398 246.947L182.993 248.433V249.243L183.128 249.919L183.533 250.797L183.398 251.54L182.993 252.08L182.385 252.418L182.048 252.756L182.25 253.296L182.79 253.836L185.355 254.917L186.233 255.593L186.638 256.403L186.705 257.687L186.3 258.565L185.018 259.713L184.748 260.051L184.883 260.456L186.84 261.402L187.448 261.942L187.785 262.55L187.853 263.36L187.65 263.901L187.38 264.441L187.313 265.049L187.515 265.86L188.055 267.075L188.19 267.954L187.988 268.697L187.65 269.372L187.38 270.115L187.245 270.79L187.313 271.331L187.515 271.804L188.19 272.141L189.743 272.479L190.62 272.817L191.633 273.492L192.308 274.033L192.915 274.978L193.86 276.937L195.143 278.963L196.155 279.436H196.763L197.843 278.626L198.45 278.356L199.058 278.491L199.463 278.963L199.8 280.652L200.138 281.463L200.948 282.206L202.298 283.827L203.648 286.393L202.838 287.407L202.568 288.285L202.298 288.69L201.353 289.433L199.26 290.514L196.223 291.527L193.32 292.878L191.7 294.296L190.958 294.769L190.08 295.174L188.123 295.715L186.773 296.323L184.613 296.728L180.765 296.053L178.875 296.255L177.863 296.525L176.58 297.066L175.905 297.201L175.298 297.133L174.083 296.323L173.61 296.12L172.733 296.255L171.788 296.188L170.505 295.917L169.695 295.58L168.345 294.567L167.535 293.959L166.59 293.553L157.613 291.662L156.668 291.324L155.79 290.852L155.318 290.379L154.98 289.298L154.508 288.96L153.63 288.758H152.55L151.808 289.028L151.268 289.433L150.66 290.379L149.918 291.122L148.838 291.797L144.113 292.945L142.628 294.296L141.345 296.863L141.143 297.403L140.67 299.632L140.13 300.983L139.118 300.105L137.025 298.822L135.945 298.957L133.853 299.903L132.098 300.24L131.49 300.443L131.085 300.781L130.208 301.659L129.803 302.064L127.643 303.212L126.833 303.82L124.875 306.117L124.2 306.59H123.458L119.948 305.914L117.383 306.049L114.818 306.725L112.86 308.076L111.578 310.305L110.7 312.871L109.553 315.033L107.595 316.046L105.908 315.573L104.423 314.628L103.073 314.02L101.925 314.56L101.183 315.438L100.71 315.573L100.17 315.506H99.2251L98.4825 315.776L96.66 316.789L94.9725 317.059L93.0825 316.721L91.4626 315.776L90.585 314.155V313.142L90.8551 312.128L90.9901 310.98L90.6526 309.899L90.045 309.359L88.6276 308.751L87.9526 308.211L86.7376 304.361L85.9276 302.672L84.4425 301.524L83.3626 301.389L81.135 301.794L80.055 301.726L79.3126 301.254L77.8951 300.038L77.085 299.7L76.005 299.835L74.0475 300.578L73.035 300.781L72.4276 300.983L71.7526 301.861L71.4151 302.132L70.8076 302.064L69.5251 301.726L68.8501 301.591L68.1076 301.929L62.6401 305.914L61.56 306.184L60.48 305.779L60.4125 304.698L61.0875 301.861L61.0201 300.511L60.75 299.025L60.21 298.214L59.2651 298.957L57.51 302.672L57.0375 303.415L56.025 303.753L55.0125 303.415L52.9875 302.199L51.705 301.861H50.355L49.1401 302.267L48.06 303.212L47.1151 304.563L46.6425 304.969L44.7526 304.158L42.3226 303.888L37.5975 304.833L35.1675 304.09L32.6701 302.672L30.24 301.861L27.7425 301.524L22.41 301.861L21.33 302.334L19.305 304.09L18.2925 304.766L17.145 305.171L15.9975 305.306H14.6475L12.015 305.712L10.7325 305.306L9.24755 303.753L8.91005 303.55L8.37005 303.753L7.96505 304.901L7.62755 305.509L5.19755 306.455L4.32005 304.563L4.65755 295.107L4.38755 293.621L3.98255 292.27L3.10505 291.189L2.02505 290.311L1.08005 289.23L0.675049 287.744L0.877549 284.637L1.55255 281.598L4.32005 273.019L5.53505 270.385L5.80505 269.642V269.102L6.00755 268.967L6.88505 269.102L8.70755 271.128L11.61 276.194L17.4825 274.1L17.415 273.019L15.9975 270.453L16.065 269.912L15.8625 268.899L15.66 268.426L15.12 265.86L15.525 263.833L16.5375 262.01L17.7525 260.186L17.955 259.645L18.225 258.227L18.495 257.889L18.9675 258.092L19.6425 259.308L20.0475 259.645L20.9925 259.781L22.005 259.645L46.035 251L48.1951 251.202L56.9026 256.944L58.2526 257.349L61.2901 257.214L62.6401 257.281L63.9901 257.957L64.8675 258.97L65.6776 260.051L66.6225 261.131L67.7026 261.739L69.8626 262.01L72.2251 263.023L77.085 263.766L78.5701 264.239L79.9876 265.252L80.6626 266.67L79.7175 268.426L78.7725 269.102L77.76 269.642L76.8151 270.318L76.005 271.398L75.4651 272.884L75.2626 274.303L75.735 275.384L77.085 275.856L77.6251 275.113L78.0975 273.357L78.5026 272.682L79.2451 272.276L81.81 272.209L83.16 271.736L84.3751 270.926L85.3876 269.845L86.2651 268.426L86.7376 265.657L86.67 263.158L86.9401 261.131L88.56 259.578L92.4751 258.227L93.3526 257.754L95.7151 255.728L96.3225 254.985H96.66L97.2001 255.39L98.2801 254.85L98.7526 254.444L99.5626 254.174L102.803 254.917L104.693 254.242L106.718 252.756L107.73 250.797L106.515 248.838L108.675 246.542L112.253 245.934L119.34 247.014L121.298 246.812L122.108 245.461L122.648 243.637L123.593 242.219L124.47 241.948L125.078 242.421L125.685 243.232L126.293 244.042L127.103 244.38L128.115 244.448L130.073 244.245L131.288 244.38L133.178 246.136L135.945 247.014L136.553 247.96L137.025 249.176L138.105 250.257L139.455 251.067L140.805 251.608L143.708 252.148L145.193 252.013L145.733 251.135L145.868 249.716L146.273 248.163L147.353 247.217L148.433 248.095L149.31 249.919L149.715 251.54V254.85L150.12 256.066L151.335 256.606L152.145 256.403L155.385 254.444L156.398 253.499L157.005 252.418L158.153 249.851L160.043 247.96L162.27 247.825L164.7 248.433L167.13 248.635L168.143 248.365L169.358 248.771L170.37 248.906L171.18 248.703L171.585 247.825L171.248 247.217L170.843 246.947V246.947ZM119.34 264.509L118.868 264.171L115.493 262.753L113.805 261.604L112.793 260.321L111.915 258.092L110.903 256.133L109.485 255.323L107.595 256.336L106.515 258.835L106.178 260.253L106.11 261.604L106.448 262.888L107.933 266.197L108.675 267.211L109.485 267.616L111.105 267.954L111.78 268.561L112.05 270.858L109.485 274.978L109.553 277.005L110.295 277.41L111.173 276.87L112.05 276.059L112.725 275.586L113.873 275.654L114.143 276.329L114.345 277.207L115.02 277.883L115.965 277.95L118.8 277.14H120.893L121.703 276.802L122.378 275.856L122.513 273.357L119.813 270.453L119.678 268.359L120.623 267.413L123.458 265.454L123.863 264.171L123.458 263.428L122.648 263.293L121.095 263.698L120.083 264.441L119.34 264.509V264.509ZM155.25 275.654L155.858 274.641L157.208 269.575L156.938 268.764L155.453 269.237L153.225 270.926L152.145 271.398L150.593 271.533L149.648 272.682L150.255 273.83L151.538 274.776L152.753 275.384L154.305 275.856L155.25 275.654V275.654ZM85.7925 279.842L78.3675 277.342H77.4901L77.4225 278.558L77.8276 279.842L78.6376 281.057L80.73 282.476L81.3376 283.286L83.0925 286.258L83.43 286.529L86.6026 283.962L88.3575 283.084L90.3151 282.678L90.9901 282.138L91.0575 280.652L90.585 279.234L89.8426 279.031L87.9526 279.909L85.7925 279.842V279.842Z" fill="#C9C9C9" stroke="#E7E7E7" stroke-width="2" stroke-linecap="round" stroke-linejoin="round"/>
<path d="M238.005 94.1586L238.41 95.2393L238.882 95.7797L239.287 95.6446H239.962L240.772 95.8473L243.945 97.0631L246.645 97.5359L247.387 97.8061L248.265 98.7517L248.67 98.9544H249.682L250.357 99.157L251.1 99.4272L252.18 100.103L252.72 100.575L253.327 101.318L253.597 102.061L254.002 103.683L254.407 104.088L256.162 103.615L257.445 103.818L259.402 104.628H260.28L262.102 104.223L262.98 104.155L263.79 104.29L269.392 106.519L270.067 106.587L271.012 106.452L271.552 106.182L271.822 105.912L272.7 104.831L273.037 104.561L274.455 103.818L275.197 103.615L275.737 103.683L277.02 103.953L277.56 104.088L278.437 104.561L279.045 105.709L280.057 109.154L279.652 110.167L278.235 112.193L277.627 113.409L277.29 113.747L276.547 114.017H275.737L275.265 114.287L275.4 114.963L276.277 115.638L276.75 116.043L278.1 117.8L278.842 118.407L279.517 118.745L280.057 118.813L280.597 118.678L281.07 118.272L281.407 117.8L281.677 116.786L281.61 115.976L281.812 115.841L283.837 116.719L284.985 117.732L285.322 117.867L285.727 117.8L287.347 116.921L287.82 116.989L288.495 117.327L289.912 117.8L290.452 118.272L290.925 119.353L291.06 120.569L291.127 121.852L290.79 126.31V126.716L291.127 127.053L293.287 127.526L295.92 127.661L297.877 128.134L298.282 128.337L298.552 128.742L298.822 129.417L299.16 131.174L299.902 137.658V138.266L299.497 138.536L298.687 138.469L296.662 137.793L295.92 137.253L295.515 136.577L295.65 135.361V134.281L295.582 133.673L295.312 132.93L294.975 132.322L294.435 131.782L293.895 131.376L293.355 131.174L292.207 130.836L289.71 130.498L288.9 130.633L288.562 130.903L287.01 132.322L286.672 132.592L286.807 133.065H287.077L287.685 134.078L288.562 136.375L288.9 136.983L289.98 136.78L290.722 137.05L291.33 137.32L291.735 137.793L292.342 138.604L292.747 138.874L293.962 139.212L294.232 139.414L295.582 140.698L296.865 141.373L297.607 141.508L298.282 141.441L300.24 140.833L301.252 140.765L302.67 140.968L303.48 141.305L304.155 141.778L305.1 142.656L305.437 142.859H306.247L306.855 142.454L307.8 142.116L309.217 141.913L312.322 141.778L315.63 142.184L316.44 142.724L317.047 142.927L317.857 142.859L319.14 142.184L320.422 141.103L321.03 140.833L322.245 140.765L322.987 140.833L324 141.238L325.012 141.103L332.64 137.793L333.382 137.185L333.585 136.442L334.125 135.969L334.597 135.834H335.812L337.567 136.983L338.107 137.523L338.175 138.333L337.972 138.874L337.162 140.698L337.027 141.508L336.892 144.21L336.69 145.088L336.15 146.777L335.407 149.884L334.665 152.18L334.327 152.923L332.167 155.895L331.695 156.368L331.155 156.773L329.332 157.381L327.172 158.462L326.16 158.8L322.38 159.408L321.502 159.678L320.49 160.083L318.937 161.029L314.077 162.785L313.402 163.123L313.132 163.46V164.136L313.942 166.162L314.28 166.77L315.9 169.134L316.642 170.012L316.237 170.418L315.36 170.62L314.685 170.418L313.605 169.945L312.727 169.81L307.867 170.89L304.762 171.026L304.492 171.093L302.872 172.174L302.4 172.444L301.387 172.647L300.51 173.255L299.835 174.065L299.295 174.335H298.687L297.742 174.268L297.27 174.538L296.865 175.011L296.392 176.159L296.257 176.699L296.392 177.307L301.05 181.157L300.982 181.833L300.172 183.116L294.772 189.668L287.752 186.021L287.482 185.615L287.212 185.007L287.077 183.792L287.145 182.711L287.077 181.968L286.807 181.36L285.592 180.414L285.187 179.942L285.052 179.199L285.255 178.05L285.187 177.645L284.917 177.375L284.242 177.105L283.297 177.24L282.285 178.456L279.045 183.859L278.64 184.264L276.345 185.818L275.602 186.561L275.062 187.237L274.86 187.912L274.792 188.52L274.86 190.209L274.792 190.952L274.185 191.222L273.375 191.019L272.16 190.006L271.417 189.668L270.337 189.533L269.932 189.33L269.73 188.993L269.527 187.642L269.055 187.101L267.502 186.966L267.165 186.561L267.502 185.75L268.245 184.872L273.442 179.942L273.78 179.401V178.591L273.51 177.983L272.025 176.091H271.687L269.865 176.429L269.19 176.834L268.987 177.51L269.325 178.726L269.392 179.401L269.19 179.739L268.852 179.942L267.975 180.212L267.3 180.279L262.102 179.806L260.077 179.874L259.402 179.671L258.795 180.347L257.647 182.238L257.242 182.778L256.5 183.251L256.027 183.724L255.622 184.467L255.082 185.615L254.542 185.818L253.665 185.953L253.327 185.615L252.922 184.872L252.315 184.129L252.045 183.927L251.302 184.129L248.13 186.493L247.59 187.101L247.117 187.709L246.847 188.655L246.915 189.33L247.05 190.479L246.78 191.897V192.302L247.252 193.721V194.667L247.05 195.139L246.51 195.747L245.7 196.423L242.122 198.044L240.435 199.8L239.355 200.746L238.005 200.408L234.427 200.678L233.145 199.8L232.335 198.584L231.322 197.909L226.8 200.003L223.965 202.029L223.222 202.164L223.357 200.813L223.087 198.382L220.725 197.774L212.895 198.517L210.262 198.179L207.9 197.098L206.01 195.004L203.377 190.952L202.162 190.479L200.677 190.344L199.597 189.803V187.912L199.665 187.034L199.192 186.426L195.952 186.156L194.197 185.615L192.915 184.805L191.16 182.035L190.35 181.495L189.27 182.373L188.932 182.981L188.19 185.143L187.785 185.48L185.49 185.818L180.157 187.439L180.967 185.548L181.372 184.062V182.508L180.832 178.253L180.697 175.889L180.427 173.727L179.752 172.174L178.2 171.228L176.715 171.431L175.23 172.376L173.947 173.592L172.125 174.673L171.045 174.133L170.1 172.782L168.682 171.566L163.822 172.376L162.202 171.633L161.865 168.189L162.067 164.676L161.662 162.042L160.717 159.61L154.98 150.964L154.507 150.559L153.967 150.357L153.562 150.694V152.383L153.09 152.856L152.482 152.586L152.145 151.235L151.47 150.964L151.2 151.437L150.997 152.315L150.592 152.991L150.052 152.788L149.985 151.775L151.065 147.182V145.493L150.795 143.94L149.985 142.791L148.635 142.589L147.285 143.129L146.542 144.075L145.327 147.182L146.002 148.6L147.69 150.829L147.892 152.315L147.622 153.936L146.812 156.638L144.72 161.096L143.032 162.853L141.007 163.258L138.307 162.11L135.405 159.34L134.595 159.138L134.19 160.218L134.73 174.268L134.392 177.037L133.042 178.253L128.857 174.605L127.305 176.632L126.697 178.185H125.887L125.077 177.375L124.47 176.227L123.727 173.187L123.052 172.174L121.567 172.039L120.352 172.782L120.15 173.862L120.487 175.348L120.622 177.037L120.015 178.658L119.002 177.983L117.517 175.348L116.505 174.538L114.21 174.268L113.13 173.592L111.847 172.647L110.497 171.971L107.595 171.431L104.962 171.836L103.747 171.701L102.667 170.688L101.79 169.472L100.777 168.459L99.6975 167.648L98.55 167.175L97.1325 167.311L95.985 167.851L94.9725 168.054L94.23 166.905L94.095 165.487L95.04 160.488L94.905 158.8L94.2975 157.111L90.855 151.167L89.8425 149.749L88.695 149.006L86.6025 149.343L79.1775 153.666L77.085 154.477L75.6 154.409L74.655 153.531L73.17 150.694L72.2925 149.546L71.28 148.6L68.985 147.182L60.345 146.236L58.1175 145.02L56.97 142.386L58.2525 140.292L68.175 134.416L71.82 131.511L73.7775 130.566L75.6 129.35L77.085 127.188L78.84 123.271L81.54 120.164L87.5475 114.963L89.4375 113.814L95.5125 113.071L97.605 112.261L98.28 110.91L98.4825 106.182L99.5625 103.142L102.06 102.467L105.097 102.602L107.595 101.994L116.235 95.5095L121.297 94.0235L123.525 92.47L124.47 89.3629L124.267 89.2953L125.82 88.8225L133.92 90.6462L134.662 90.7813L135.54 90.7138L137.767 90.0383L139.05 89.3629L139.657 89.1602L147.285 88.9576L148.972 89.4304L159.165 94.0235L160.042 94.2937L161.257 94.0235L163.215 94.4288L170.032 97.2657L171.18 97.7385L172.327 98.414L173.812 99.7649L177.795 99.9L178.942 99.6298L180.09 98.9544L181.44 97.3333L182.047 95.7797L182.655 93.213L183.06 92.1322L183.6 91.1191L184.41 90.3085L185.827 89.7006L186.907 89.3629L191.497 88.6199H193.455L194.265 88.8901L195.142 89.7681L195.615 90.6462L195.952 91.5243L196.695 91.9972L197.775 92.2673L199.732 92.1322L201.825 92.2673L203.917 93.6183L204.997 93.956L207.427 93.1454L208.44 93.0779L210.397 94.2937L213.772 95.5771L215.055 96.2525L216.202 97.1306L219.105 100.238L219.982 100.643L220.995 100.711L222.885 100.44L224.167 99.9675L224.91 99.2245L225.045 98.4815L225.112 97.5359L225.247 96.6578L226.26 95.7797L227.88 95.1043L233.752 93.6183L234.225 93.6858L234.697 94.2262L236.047 94.8341L238.005 94.1586V94.1586Z" fill="#C9C9C9" stroke="#E7E7E7" stroke-width="2" stroke-linecap="round" stroke-linejoin="round"/>
<path d="M261.968 70.7879L263.723 71.058L265.208 69.6396L265.68 68.6939L265.41 67.4781L265.545 66.4649L265.815 65.7219L266.288 65.114H266.558L266.76 65.3842L267.165 66.8027L267.503 67.5457L268.11 68.086L269.123 68.4238H269.73L271.485 68.2211L272.43 68.4238L273.24 69.572L273.375 70.1799L273.443 71.1256L273.24 71.801L272.97 72.2739L271.35 73.8274L270.338 75.2459L270 75.9889L269.865 77.3398L268.11 79.7039L267.233 80.1767L263.52 81.7978L262.238 82.1355H261.225L259.538 81.1899L259.065 80.9872L256.77 80.6495L255.353 80.7171L254.273 80.9872L251.91 82.0004L250.965 82.1355L250.088 81.9329L249.345 81.6627L248.198 81.4601L247.32 81.5952L246.173 81.9329L245.025 82.068L243.608 82.4732L241.853 83.3513L241.38 83.7566L240.705 84.6347L240.03 85.2426L239.22 85.3777L237.195 85.3102L236.52 85.5803L236.115 86.0532L235.913 86.6611L235.373 89.1603V90.1734L235.575 90.5787L235.98 90.9165L238.208 91.5919L238.68 91.9296L238.815 92.47L238.613 92.9428L238.005 94.1586L236.048 94.8341L234.698 94.2262L234.225 93.6858L233.753 93.6183L227.88 95.1043L226.26 95.7797L225.248 96.6578L225.113 97.5359L225.045 98.4816L224.91 99.2246L224.168 99.9676L222.885 100.44L220.995 100.711L219.983 100.643L219.105 100.238L216.203 97.1307L215.055 96.2526L213.773 95.5771L210.398 94.2937L208.44 93.0779L207.428 93.1455L204.998 93.956L203.918 93.6183L201.825 92.2674L199.733 92.1323L197.775 92.2674L196.695 91.9972L195.953 91.5244L195.615 90.6463L195.143 89.7682L194.265 88.8901L193.455 88.6199H191.498L186.908 89.3629L185.828 89.7006L184.41 90.3085L183.6 91.1191L183.06 92.1323L182.655 93.213L182.048 95.7797L181.44 97.3333L180.09 98.9544L178.943 99.6298L177.795 99.9L173.813 99.7649L172.328 98.414L171.18 97.7386L170.033 97.2657L163.215 94.4288L161.258 94.0235L160.043 94.2937L159.165 94.0235L148.973 89.4304L147.285 88.9576L139.658 89.1603L139.05 89.3629L137.768 90.0384L135.54 90.7138L134.663 90.7814L133.92 90.6463L125.82 88.8225L124.268 89.2954L122.31 88.6199L113.738 82.4732L111.78 81.6627L109.823 81.9329L107.123 83.8917L105.773 85.1751L104.018 84.7698L102.735 84.0943L100.305 81.6627L99.9675 80.3793L100.71 79.096L102.938 77.0021L104.895 74.5704L105.3 73.6248L105.165 73.0169L104.828 72.4765L104.693 71.5984L105.098 69.9773L105.773 68.3562L106.65 66.9378L107.595 66.0597L110.498 67.9509L111.51 68.086L112.32 67.6132L112.928 66.8027L113.063 65.7895L112.523 64.8438L110.363 62.9526L109.755 62.142L109.215 59.0349L111.443 57.6165L116.775 56.8059L117.72 55.7927L118.058 54.5769L117.923 51.2672L118.058 49.511L118.598 48.7004L120.893 47.8899L121.905 47.2144L122.648 46.2012L123.998 43.7696L125.01 43.2292L126.36 43.6345L127.845 44.31L129.128 44.5801L130.208 44.1073L131.153 43.1617L131.963 42.0134L132.638 40.73L133.718 39.7844L135.203 39.7169L138.105 40.73L139.118 40.2572L139.793 40.1897L140.4 40.5274L142.83 42.6213L143.573 42.8915L144.653 42.6889L151.335 38.3659L153.36 37.6905L157.613 37.4879L159.773 36.6773L160.785 36.4747L161.73 36.9475L162.675 37.5554L163.688 38.0282L167.4 38.9739L174.488 42.8915L176.445 43.4994L177.39 43.3643L179.145 42.4862L180.09 42.2836L187.92 42.6213L191.97 44.2424L199.193 49.1057L201.285 49.5785L205.74 49.511L214.38 51.6049L216.27 52.6856L217.755 54.3067L219.848 58.2244L221.4 59.7104L223.493 60.656L225.518 61.2639L227.61 61.3315L235.44 59.9806L238.14 60.1156L240.435 61.0613L241.65 62.0069L242.663 62.6148L243.743 62.885L248.13 63.2227L249.548 63.6956L250.425 64.8438L250.29 67.343L250.358 69.1668L251.033 70.2475L256.635 71.1931L260.28 72.6791L261.968 72.3414V70.7879V70.7879Z" fill="#C9C9C9" stroke="#E7E7E7" stroke-width="2" stroke-linecap="round" stroke-linejoin="round"/>
<path d="M294.773 189.668L295.853 191.289L302.535 197.233L304.088 198.246L304.493 198.652L304.83 199.192L305.168 200.07L305.303 200.678L305.438 202.097L305.775 202.502L306.383 203.11L307.395 203.718L311.715 207.905L312.188 208.581L312.66 209.594L313.133 210.27L314.145 211.485L316.643 213.579L317.925 214.39L326.363 217.497L327.038 217.902L327.848 218.713L328.388 219.794V220.672L328.32 221.144L327.713 222.968L328.185 223.441L329.063 223.914L333.585 224.657L334.53 225.94L334.868 226.21L335.61 226.413L336.69 226.548L341.415 226.481L343.035 227.156L342.293 228.304L341.955 229.385L341.483 230.871L340.74 232.56L340.268 234.181L340.74 235.397L343.575 238.098L344.318 239.179L344.858 241.813L342.968 242.286L337.77 240.935L336.42 240.868L335.273 241.341L332.168 244.583L331.155 245.326L328.725 246.609L326.7 248.163L321.3 254.107L314.753 259.443L312.593 260.388L310.703 260.726L308.813 260.388L306.72 259.578L304.628 259.105L302.4 259.375L300.308 260.321L298.35 261.604L296.46 262.482L292.41 263.023L290.79 264.441L290.115 265.252L289.643 266.197L289.238 267.278L289.103 268.426L288.765 270.318L287.753 271.669L286.538 272.884L285.66 274.438L285.188 277.748L284.918 278.693L284.445 279.369L282.69 280.855L281.948 282.003L281.408 283.422L281.138 284.975L281.205 286.529L281.813 288.082L282.623 288.623L283.635 288.893L284.85 289.636L285.66 290.987L286.065 292.675L286.335 296.12L287.753 300.375L287.415 301.186L286.065 302.064L285.053 302.875L284.31 304.023L283.568 305.779L282.893 308.548L282.285 309.629L281.273 310.237L269.73 311.791L268.043 310.913L262.373 310.305L260.28 310.507L253.598 312.196L252.113 313.209L251.64 314.425L251.505 315.573L251.033 316.384L247.59 317.059L241.38 319.153L239.423 319.356L237.263 318.748L236.25 318.208L235.44 317.937L234.698 318.14L231.728 319.694L230.783 319.761L229.703 319.423L225.923 318.613L224.64 318.478L222.008 319.086L221.063 319.153L209.79 316.114H208.778L207.698 316.384L207.09 316.992L205.875 318.41L205.2 318.883H204.188L202.703 317.87L201.758 317.6L201.083 317.87L199.193 319.896L198.18 320.099L197.168 320.031L195.143 319.491L194.063 319.558L191.768 320.707L190.485 320.909L189.405 321.315L188.663 322.463L187.245 326.786L184.748 332.257L184.005 332.325L183.398 331.379L182.858 330.096L182.655 329.353V328.745L182.453 328.272L181.17 327.596L180.293 326.853L179.753 326.516L177.12 326.11L175.838 325.57L175.298 324.354L175.163 322.666L174.825 320.639L174.15 318.951L173.07 318.14L171.99 318.275L169.83 319.491L167.535 319.964L166.523 320.504L160.515 324.759L158.288 325.705L156.06 325.975L154.845 325.638L153.765 324.759L152.888 323.476L152.415 321.923L152.55 320.301L153.158 319.288L153.968 318.478L154.643 317.262L154.913 315.708L154.778 313.614L154.17 311.791L153.225 310.913L152.01 310.98L145.8 312.263L142.83 312.128L140.333 310.98L139.05 308.211L139.59 306.995L141.143 304.698L141.413 303.483L141.075 302.267L140.13 300.983L140.67 299.632L141.143 297.403L141.345 296.863L142.628 294.296L144.113 292.945L148.838 291.797L149.918 291.122L150.66 290.379L151.268 289.433L151.808 289.028L152.55 288.758H153.63L154.508 288.96L154.98 289.298L155.318 290.379L155.79 290.852L156.668 291.324L157.613 291.662L166.59 293.553L167.535 293.959L168.345 294.567L169.695 295.58L170.505 295.917L171.788 296.188L172.733 296.255L173.61 296.12L174.083 296.323L175.298 297.133L175.905 297.201L176.58 297.066L177.863 296.525L178.875 296.255L180.765 296.053L184.613 296.728L186.773 296.323L188.123 295.715L190.08 295.174L190.958 294.769L191.7 294.296L193.32 292.878L196.223 291.527L199.26 290.514L201.353 289.433L202.298 288.69L202.568 288.285L202.838 287.407L203.648 286.394L202.298 283.827L200.948 282.206L200.138 281.463L199.8 280.652L199.463 278.963L199.058 278.491L198.45 278.356L197.843 278.626L196.763 279.436H196.155L195.143 278.963L193.86 276.937L192.915 274.978L192.308 274.033L191.633 273.492L190.62 272.817L189.743 272.479L188.19 272.141L187.515 271.804L187.313 271.331L187.245 270.79L187.38 270.115L187.65 269.372L187.988 268.697L188.19 267.954L188.055 267.075L187.515 265.86L187.313 265.049L187.38 264.441L187.65 263.901L187.853 263.36L187.785 262.55L187.448 261.942L186.84 261.402L184.883 260.456L184.748 260.051L185.018 259.713L186.3 258.565L186.705 257.687L186.638 256.403L186.233 255.593L185.355 254.917L182.79 253.837L182.25 253.296L182.048 252.756L182.385 252.418L182.993 252.08L183.398 251.54L183.533 250.797L183.128 249.919L182.993 249.243V248.433L183.398 246.947L183.465 246.136L182.993 244.92L182.385 244.313L181.44 244.177L176.04 245.664L173.07 246.812L170.843 246.947L170.438 246.609L168.683 245.799L167.535 244.988L167.063 243.772L167.4 242.624L172.665 239.922L174.285 238.301L175.163 236.072L175.568 234.586L176.108 233.708L180.158 231.479L181.238 231.209L184.478 231.006L185.558 231.141L186.165 231.614L185.895 232.425L185.018 232.762L184.005 232.83L183.263 233.032L182.993 233.775L183.735 234.046L186.503 233.911L187.448 234.248L191.025 236.41L192.713 237.018L194.13 236.68L195.345 234.991L196.02 232.965L196.088 231.074L195.413 229.453L192.78 227.561L192.24 226.818V225.94L192.645 224.589V223.171L191.363 220.942L191.565 219.591L193.388 218.78L195.413 220.537L197.438 222.968L199.193 223.846L201.555 224.116L205.808 227.088L208.238 226.953L209.183 226.21L209.79 225.197L210.06 224.049L210.128 222.901L210.6 221.55H211.748L213.975 222.563L215.73 221.752L216.473 216.416L217.958 214.12L220.05 213.242L224.438 212.093L229.703 208.784L235.44 206.622L238.343 205.001L240.233 202.502L239.895 200.881L239.355 200.746L240.435 199.8L242.123 198.044L245.7 196.423L246.51 195.747L247.05 195.139L247.253 194.667V193.721L246.78 192.302V191.897L247.05 190.479L246.915 189.33L246.848 188.655L247.118 187.709L247.59 187.101L248.13 186.494L251.303 184.129L252.045 183.927L252.315 184.129L252.923 184.872L253.328 185.615L253.665 185.953L254.543 185.818L255.083 185.615L255.623 184.467L256.028 183.724L256.5 183.251L257.243 182.779L257.648 182.238L258.795 180.347L259.403 179.671L260.078 179.874L262.103 179.807L267.3 180.279L267.975 180.212L268.853 179.942L269.19 179.739L269.393 179.401L269.325 178.726L268.988 177.51L269.19 176.834L269.865 176.429L271.688 176.091H272.025L273.51 177.983L273.78 178.591V179.401L273.443 179.942L268.245 184.872L267.503 185.751L267.165 186.561L267.503 186.966L269.055 187.101L269.528 187.642L269.73 188.993L269.933 189.33L270.338 189.533L271.418 189.668L272.16 190.006L273.375 191.019L274.185 191.222L274.793 190.952L274.86 190.209L274.793 188.52L274.86 187.912L275.063 187.237L275.603 186.561L276.345 185.818L278.64 184.264L279.045 183.859L282.285 178.456L283.298 177.24L284.243 177.105L284.918 177.375L285.188 177.645L285.255 178.05L285.053 179.199L285.188 179.942L285.593 180.414L286.808 181.36L287.078 181.968L287.145 182.711L287.078 183.792L287.213 185.008L287.483 185.615L287.753 186.021L294.773 189.668V189.668Z" fill="#C9C9C9" stroke="#E7E7E7" stroke-width="2" stroke-linecap="round" stroke-linejoin="round"/>
</g>
<defs>
<clipPath id="clip0_14_193">
<rect width="675" height="333" fill="white"/>
</clipPath>
</defs>
</svg>
