<svg width="293" height="103" viewBox="0 0 293 103" fill="none" xmlns="http://www.w3.org/2000/svg">
<g filter="url(#filter0_d_4_96)">
<path d="M9.24 19V15.52H0.744V14.392L8.328 1.84H12.336V13.144H14.64V15.52H12.336V19H9.24ZM4.152 13.144H9.288V4.264L4.152 13.144ZM21.8154 19V5.008L18.1914 7.48V4.672L22.1754 1.84H25.0314V19H21.8154ZM37.8221 19.24C35.4701 19.24 33.7581 18.52 32.6861 17.08C31.6301 15.624 31.1021 13.664 31.1021 11.2V10.792C31.1021 7.896 31.7581 5.64 33.0701 4.024C34.3821 2.408 36.0941 1.6 38.2061 1.6C39.7901 1.6 41.0621 1.984 42.0221 2.752C42.9981 3.52 43.5901 4.648 43.7981 6.136H40.8221C40.6621 5.448 40.3741 4.936 39.9581 4.6C39.5581 4.248 38.9661 4.072 38.1821 4.072C37.0141 4.072 36.0781 4.584 35.3741 5.608C34.6861 6.632 34.3181 8.104 34.2701 10.024C35.1501 8.552 36.5661 7.816 38.5181 7.816C40.1661 7.816 41.5181 8.336 42.5741 9.376C43.6301 10.4 44.1581 11.744 44.1581 13.408C44.1581 15.152 43.5821 16.56 42.4301 17.632C41.2941 18.704 39.7581 19.24 37.8221 19.24ZM37.7741 16.888C38.7341 16.888 39.5101 16.576 40.1021 15.952C40.6941 15.328 40.9901 14.504 40.9901 13.48C40.9901 12.44 40.6941 11.608 40.1021 10.984C39.5261 10.344 38.7501 10.024 37.7741 10.024C36.7981 10.024 35.9981 10.336 35.3741 10.96C34.7661 11.568 34.4621 12.344 34.4621 13.288C34.4621 14.408 34.7661 15.288 35.3741 15.928C35.9821 16.568 36.7821 16.888 37.7741 16.888ZM54.6668 19.216C52.9228 19.216 51.5388 18.808 50.5148 17.992C49.4908 17.176 48.8748 16.024 48.6668 14.536H51.6668C52.0028 16.008 52.9868 16.744 54.6188 16.744C57.1148 16.744 58.3868 14.784 58.4348 10.864C57.5548 12.304 56.1468 13.024 54.2108 13.024C52.5308 13.024 51.1628 12.52 50.1068 11.512C49.0508 10.488 48.5228 9.136 48.5228 7.456C48.5228 5.696 49.0988 4.28 50.2508 3.208C51.4028 2.12 52.9468 1.576 54.8828 1.576C57.0908 1.576 58.7548 2.272 59.8748 3.664C61.0108 5.056 61.5788 7.016 61.5788 9.544V10.432C61.5788 13.248 60.9788 15.416 59.7788 16.936C58.5788 18.456 56.8748 19.216 54.6668 19.216ZM52.5308 9.856C53.1228 10.48 53.9068 10.792 54.8828 10.792C55.8588 10.792 56.6508 10.496 57.2588 9.904C57.8828 9.312 58.1948 8.544 58.1948 7.6C58.1948 6.464 57.8908 5.576 57.2828 4.936C56.6748 4.28 55.8668 3.952 54.8588 3.952C53.8988 3.952 53.1228 4.264 52.5308 4.888C51.9548 5.512 51.6668 6.336 51.6668 7.36C51.6668 8.4 51.9548 9.232 52.5308 9.856ZM80.3199 19.24C78.3839 19.24 76.9039 18.768 75.8799 17.824C74.8559 16.88 74.2959 15.632 74.1999 14.08H77.1759C77.3199 14.96 77.6159 15.632 78.0639 16.096C78.5279 16.544 79.2719 16.768 80.2959 16.768C81.2719 16.768 82.0319 16.456 82.5759 15.832C83.1199 15.208 83.3919 14.36 83.3919 13.288C83.3919 12.248 83.1119 11.424 82.5519 10.816C81.9919 10.208 81.2399 9.904 80.2959 9.904C78.7759 9.904 77.5839 10.4 76.7199 11.392H75.0879L75.2319 1.84H85.6479V4.36H77.6799L77.6559 9.016C78.4879 8.056 79.7199 7.576 81.3519 7.576C82.9199 7.576 84.1919 8.096 85.1679 9.136C86.1439 10.16 86.6319 11.56 86.6319 13.336C86.6319 15.128 86.0479 16.56 84.8799 17.632C83.7119 18.704 82.1919 19.24 80.3199 19.24ZM97.6391 19.24C95.8311 19.24 94.3031 18.792 93.0551 17.896C91.8231 17 91.2071 15.752 91.2071 14.152C91.2071 13.096 91.4951 12.192 92.0711 11.44C92.6471 10.688 93.4311 10.136 94.4231 9.784C92.7271 9.112 91.8791 7.92 91.8791 6.208C91.8791 4.816 92.4471 3.704 93.5831 2.872C94.7191 2.024 96.0711 1.6 97.6391 1.6C99.2391 1.6 100.591 2.016 101.695 2.848C102.815 3.68 103.375 4.784 103.375 6.16C103.375 7.824 102.527 9.024 100.831 9.76C101.855 10.128 102.639 10.68 103.183 11.416C103.743 12.136 104.023 13.016 104.023 14.056C104.023 15.688 103.415 16.96 102.199 17.872C100.983 18.784 99.4631 19.24 97.6391 19.24ZM97.6391 16.84C98.5831 16.84 99.3511 16.576 99.9431 16.048C100.535 15.52 100.831 14.792 100.831 13.864C100.831 12.952 100.535 12.24 99.9431 11.728C99.3511 11.2 98.5911 10.936 97.6631 10.936C96.7511 10.936 95.9831 11.2 95.3591 11.728C94.7351 12.24 94.4231 12.96 94.4231 13.888C94.4231 14.816 94.7271 15.544 95.3351 16.072C95.9591 16.584 96.7271 16.84 97.6391 16.84ZM97.6871 8.848C98.4871 8.848 99.1271 8.624 99.6071 8.176C100.103 7.728 100.351 7.12 100.351 6.352C100.351 5.632 100.095 5.048 99.5831 4.6C99.0711 4.136 98.4231 3.904 97.6391 3.904C96.8551 3.904 96.2071 4.128 95.6951 4.576C95.1831 5.024 94.9271 5.624 94.9271 6.376C94.9271 7.128 95.1911 7.728 95.7191 8.176C96.2631 8.624 96.9191 8.848 97.6871 8.848ZM114.534 19.24C112.598 19.24 111.118 18.768 110.094 17.824C109.07 16.88 108.51 15.632 108.414 14.08H111.39C111.534 14.96 111.83 15.632 112.278 16.096C112.742 16.544 113.486 16.768 114.51 16.768C115.486 16.768 116.246 16.456 116.79 15.832C117.334 15.208 117.606 14.36 117.606 13.288C117.606 12.248 117.326 11.424 116.766 10.816C116.206 10.208 115.454 9.904 114.51 9.904C112.99 9.904 111.798 10.4 110.934 11.392H109.302L109.446 1.84H119.862V4.36H111.894L111.87 9.016C112.702 8.056 113.934 7.576 115.566 7.576C117.134 7.576 118.406 8.096 119.382 9.136C120.358 10.16 120.846 11.56 120.846 13.336C120.846 15.128 120.262 16.56 119.094 17.632C117.926 18.704 116.406 19.24 114.534 19.24ZM131.73 19.24C129.73 19.24 128.17 18.736 127.05 17.728C125.946 16.72 125.354 15.376 125.274 13.696H128.178C128.274 14.656 128.602 15.424 129.162 16C129.722 16.56 130.554 16.84 131.658 16.84C132.746 16.84 133.562 16.6 134.106 16.12C134.65 15.624 134.922 14.936 134.922 14.056C134.922 12.184 133.89 11.248 131.826 11.248H130.506V8.968H131.73C133.634 8.968 134.586 8.128 134.586 6.448C134.586 5.728 134.354 5.144 133.89 4.696C133.442 4.248 132.786 4.024 131.922 4.024C131.026 4.024 130.29 4.28 129.714 4.792C129.154 5.288 128.826 5.976 128.73 6.856H125.898C125.978 5.32 126.562 4.064 127.65 3.088C128.738 2.096 130.178 1.6 131.97 1.6C133.714 1.6 135.09 2.04 136.098 2.92C137.122 3.8 137.634 4.896 137.634 6.208C137.634 8 136.706 9.248 134.85 9.952C135.874 10.192 136.682 10.672 137.274 11.392C137.866 12.096 138.162 13 138.162 14.104C138.162 15.688 137.578 16.944 136.41 17.872C135.258 18.784 133.698 19.24 131.73 19.24ZM156.89 19.24C154.954 19.24 153.474 18.768 152.45 17.824C151.426 16.88 150.866 15.632 150.77 14.08H153.746C153.89 14.96 154.186 15.632 154.634 16.096C155.098 16.544 155.842 16.768 156.866 16.768C157.842 16.768 158.602 16.456 159.146 15.832C159.69 15.208 159.962 14.36 159.962 13.288C159.962 12.248 159.682 11.424 159.122 10.816C158.562 10.208 157.81 9.904 156.866 9.904C155.346 9.904 154.154 10.4 153.29 11.392H151.658L151.802 1.84H162.218V4.36H154.25L154.226 9.016C155.058 8.056 156.29 7.576 157.922 7.576C159.49 7.576 160.762 8.096 161.738 9.136C162.714 10.16 163.202 11.56 163.202 13.336C163.202 15.128 162.618 16.56 161.45 17.632C160.282 18.704 158.762 19.24 156.89 19.24ZM175.169 16.696C177.777 16.696 179.081 14.728 179.081 10.792V9.952C179.081 8.112 178.737 6.68 178.049 5.656C177.361 4.616 176.385 4.096 175.121 4.096C173.825 4.096 172.833 4.6 172.145 5.608C171.457 6.616 171.113 8.072 171.113 9.976V10.84C171.113 12.76 171.465 14.216 172.169 15.208C172.873 16.2 173.873 16.696 175.169 16.696ZM175.097 19.24C172.905 19.24 171.153 18.488 169.841 16.984C168.545 15.48 167.897 13.44 167.897 10.864V10C167.897 7.424 168.553 5.384 169.865 3.88C171.177 2.36 172.921 1.6 175.097 1.6C177.289 1.6 179.033 2.352 180.329 3.856C181.625 5.344 182.273 7.368 182.273 9.928V10.792C182.273 13.384 181.633 15.44 180.353 16.96C179.073 18.48 177.321 19.24 175.097 19.24ZM193.08 19.24C191.08 19.24 189.52 18.736 188.4 17.728C187.296 16.72 186.704 15.376 186.624 13.696H189.528C189.624 14.656 189.952 15.424 190.512 16C191.072 16.56 191.904 16.84 193.008 16.84C194.096 16.84 194.912 16.6 195.456 16.12C196 15.624 196.272 14.936 196.272 14.056C196.272 12.184 195.24 11.248 193.176 11.248H191.856V8.968H193.08C194.984 8.968 195.936 8.128 195.936 6.448C195.936 5.728 195.704 5.144 195.24 4.696C194.792 4.248 194.136 4.024 193.272 4.024C192.376 4.024 191.64 4.28 191.064 4.792C190.504 5.288 190.176 5.976 190.08 6.856H187.248C187.328 5.32 187.912 4.064 189 3.088C190.088 2.096 191.528 1.6 193.32 1.6C195.064 1.6 196.44 2.04 197.448 2.92C198.472 3.8 198.984 4.896 198.984 6.208C198.984 8 198.056 9.248 196.2 9.952C197.224 10.192 198.032 10.672 198.624 11.392C199.216 12.096 199.512 13 199.512 14.104C199.512 15.688 198.928 16.944 197.76 17.872C196.608 18.784 195.048 19.24 193.08 19.24ZM207.295 19V5.008L203.671 7.48V4.672L207.655 1.84H210.511V19H207.295ZM231.421 19.24C229.069 19.24 227.357 18.52 226.285 17.08C225.229 15.624 224.701 13.664 224.701 11.2V10.792C224.701 7.896 225.357 5.64 226.669 4.024C227.981 2.408 229.693 1.6 231.805 1.6C233.389 1.6 234.661 1.984 235.621 2.752C236.597 3.52 237.189 4.648 237.397 6.136H234.421C234.261 5.448 233.973 4.936 233.557 4.6C233.157 4.248 232.565 4.072 231.781 4.072C230.613 4.072 229.677 4.584 228.973 5.608C228.285 6.632 227.917 8.104 227.869 10.024C228.749 8.552 230.165 7.816 232.117 7.816C233.765 7.816 235.117 8.336 236.173 9.376C237.229 10.4 237.757 11.744 237.757 13.408C237.757 15.152 237.181 16.56 236.029 17.632C234.893 18.704 233.357 19.24 231.421 19.24ZM231.373 16.888C232.333 16.888 233.109 16.576 233.701 15.952C234.293 15.328 234.589 14.504 234.589 13.48C234.589 12.44 234.293 11.608 233.701 10.984C233.125 10.344 232.349 10.024 231.373 10.024C230.397 10.024 229.597 10.336 228.973 10.96C228.365 11.568 228.061 12.344 228.061 13.288C228.061 14.408 228.365 15.288 228.973 15.928C229.581 16.568 230.381 16.888 231.373 16.888ZM250.374 19V15.52H241.878V14.392L249.462 1.84H253.47V13.144H255.774V15.52H253.47V19H250.374ZM245.286 13.144H250.422V4.264L245.286 13.144ZM266.157 19.216C264.413 19.216 263.029 18.808 262.005 17.992C260.981 17.176 260.365 16.024 260.157 14.536H263.157C263.493 16.008 264.477 16.744 266.109 16.744C268.605 16.744 269.877 14.784 269.925 10.864C269.045 12.304 267.637 13.024 265.701 13.024C264.021 13.024 262.653 12.52 261.597 11.512C260.541 10.488 260.013 9.136 260.013 7.456C260.013 5.696 260.589 4.28 261.741 3.208C262.893 2.12 264.437 1.576 266.373 1.576C268.581 1.576 270.245 2.272 271.365 3.664C272.501 5.056 273.069 7.016 273.069 9.544V10.432C273.069 13.248 272.469 15.416 271.269 16.936C270.069 18.456 268.365 19.216 266.157 19.216ZM264.021 9.856C264.613 10.48 265.397 10.792 266.373 10.792C267.349 10.792 268.141 10.496 268.749 9.904C269.373 9.312 269.685 8.544 269.685 7.6C269.685 6.464 269.381 5.576 268.773 4.936C268.165 4.28 267.357 3.952 266.349 3.952C265.389 3.952 264.613 4.264 264.021 4.888C263.445 5.512 263.157 6.336 263.157 7.36C263.157 8.4 263.445 9.232 264.021 9.856ZM277.068 19V18.424L283.548 11.584C285.292 9.744 286.164 8.12 286.164 6.712C286.164 5.896 285.94 5.256 285.492 4.792C285.044 4.328 284.412 4.096 283.596 4.096C281.82 4.096 280.796 5.232 280.524 7.504H277.596C277.708 5.632 278.3 4.184 279.372 3.16C280.444 2.12 281.884 1.6 283.692 1.6C285.452 1.6 286.836 2.064 287.844 2.992C288.852 3.904 289.356 5.128 289.356 6.664C289.356 8.6 288.236 10.648 285.996 12.808L282.18 16.528H289.476V19H277.068ZM1.968 97V79.84H8.112C11.856 79.84 13.728 81.328 13.728 84.304V84.4C13.728 86.272 12.824 87.488 11.016 88.048C12.184 88.304 13.048 88.76 13.608 89.416C14.168 90.072 14.448 90.968 14.448 92.104V92.2C14.448 93.784 13.944 94.984 12.936 95.8C11.928 96.6 10.472 97 8.568 97H1.968ZM5.088 94.72H8.184C10.264 94.72 11.304 93.808 11.304 91.984V91.888C11.304 90.992 11.032 90.328 10.488 89.896C9.96 89.448 9.12 89.224 7.968 89.224H5.088V94.72ZM5.088 87.064H7.728C8.768 87.064 9.512 86.864 9.96 86.464C10.424 86.064 10.656 85.424 10.656 84.544V84.448C10.656 83.632 10.416 83.04 9.936 82.672C9.456 82.304 8.704 82.12 7.68 82.12H5.088V87.064ZM22.7168 97.24C20.8448 97.24 19.3168 96.664 18.1328 95.512C16.9488 94.36 16.3568 92.808 16.3568 90.856V90.664C16.3568 88.744 16.9408 87.184 18.1088 85.984C19.2928 84.784 20.7888 84.184 22.5968 84.184C24.2928 84.184 25.7008 84.712 26.8208 85.768C27.9568 86.824 28.5248 88.408 28.5248 90.52V91.36H19.3328C19.3808 92.56 19.7008 93.48 20.2928 94.12C20.8848 94.76 21.7168 95.08 22.7888 95.08C24.4848 95.08 25.4448 94.44 25.6688 93.16H28.4768C28.2688 94.472 27.6608 95.48 26.6528 96.184C25.6448 96.888 24.3328 97.24 22.7168 97.24ZM19.3808 89.416H25.6448C25.5008 87.336 24.4848 86.296 22.5968 86.296C21.7328 86.296 21.0128 86.576 20.4368 87.136C19.8768 87.68 19.5248 88.44 19.3808 89.416ZM31.1186 97V78.64H34.0226V89.968L38.5106 84.448H41.6786L36.8066 90.208L42.0866 97H38.7266L34.0226 90.832V97H31.1186ZM51.0876 97.24C50.1276 97.24 49.2876 97.032 48.5676 96.616C47.8636 96.2 47.3356 95.656 46.9836 94.984V97H44.0796V78.64H46.9836V86.464C47.3516 85.824 47.9036 85.288 48.6396 84.856C49.3916 84.408 50.2076 84.184 51.0876 84.184C52.7036 84.184 54.0316 84.76 55.0716 85.912C56.1276 87.048 56.6556 88.6 56.6556 90.568V90.76C56.6556 92.744 56.1356 94.32 55.0956 95.488C54.0716 96.656 52.7356 97.24 51.0876 97.24ZM50.3676 94.936C51.4396 94.936 52.2556 94.584 52.8156 93.88C53.3916 93.176 53.6796 92.152 53.6796 90.808V90.616C53.6796 89.272 53.3676 88.248 52.7436 87.544C52.1356 86.824 51.3356 86.464 50.3436 86.464C49.3036 86.464 48.4636 86.824 47.8236 87.544C47.1996 88.248 46.8876 89.272 46.8876 90.616V90.808C46.8876 92.168 47.1916 93.2 47.7996 93.904C48.4236 94.592 49.2796 94.936 50.3676 94.936ZM64.8831 94.984C65.9551 94.984 66.7951 94.616 67.4031 93.88C68.0271 93.128 68.3391 92.104 68.3391 90.808V90.64C68.3391 89.344 68.0271 88.328 67.4031 87.592C66.7951 86.84 65.9551 86.464 64.8831 86.464C63.7951 86.464 62.9391 86.832 62.3151 87.568C61.7071 88.304 61.4031 89.32 61.4031 90.616V90.808C61.4031 92.104 61.7071 93.128 62.3151 93.88C62.9391 94.616 63.7951 94.984 64.8831 94.984ZM69.4911 95.464C68.2751 96.648 66.7311 97.24 64.8591 97.24C62.9871 97.24 61.4431 96.648 60.2271 95.464C59.0271 94.28 58.4271 92.744 58.4271 90.856V90.664C58.4271 88.744 59.0351 87.184 60.2511 85.984C61.4671 84.784 63.0111 84.184 64.8831 84.184C66.7391 84.184 68.2751 84.776 69.4911 85.96C70.7071 87.144 71.3151 88.688 71.3151 90.592V90.784C71.3151 92.72 70.7071 94.28 69.4911 95.464ZM74.0109 97V78.64H76.9149V97H74.0109ZM86.0706 94.984C87.1426 94.984 87.9826 94.616 88.5906 93.88C89.2146 93.128 89.5266 92.104 89.5266 90.808V90.64C89.5266 89.344 89.2146 88.328 88.5906 87.592C87.9826 86.84 87.1426 86.464 86.0706 86.464C84.9826 86.464 84.1266 86.832 83.5026 87.568C82.8946 88.304 82.5906 89.32 82.5906 90.616V90.808C82.5906 92.104 82.8946 93.128 83.5026 93.88C84.1266 94.616 84.9826 94.984 86.0706 94.984ZM90.6786 95.464C89.4626 96.648 87.9186 97.24 86.0466 97.24C84.1746 97.24 82.6306 96.648 81.4146 95.464C80.2146 94.28 79.6146 92.744 79.6146 90.856V90.664C79.6146 88.744 80.2226 87.184 81.4386 85.984C82.6546 84.784 84.1986 84.184 86.0706 84.184C87.9266 84.184 89.4626 84.776 90.6786 85.96C91.8946 87.144 92.5026 88.688 92.5026 90.592V90.784C92.5026 92.72 91.8946 94.28 90.6786 95.464ZM99.3984 97.216C98.1664 97.216 97.2224 96.896 96.5664 96.256C95.9264 95.616 95.6064 94.696 95.6064 93.496V86.632H93.9264V84.448H95.6064V81.688H98.5104V84.448H101.27V86.632H98.5104V93.232C98.5104 94.304 98.9904 94.84 99.9504 94.84C100.51 94.84 100.982 94.76 101.366 94.6V96.904C100.806 97.112 100.15 97.216 99.3984 97.216ZM109.602 94.984C110.674 94.984 111.514 94.616 112.122 93.88C112.746 93.128 113.058 92.104 113.058 90.808V90.64C113.058 89.344 112.746 88.328 112.122 87.592C111.514 86.84 110.674 86.464 109.602 86.464C108.514 86.464 107.658 86.832 107.034 87.568C106.426 88.304 106.122 89.32 106.122 90.616V90.808C106.122 92.104 106.426 93.128 107.034 93.88C107.658 94.616 108.514 94.984 109.602 94.984ZM114.21 95.464C112.994 96.648 111.45 97.24 109.578 97.24C107.706 97.24 106.162 96.648 104.946 95.464C103.746 94.28 103.146 92.744 103.146 90.856V90.664C103.146 88.744 103.754 87.184 104.97 85.984C106.186 84.784 107.73 84.184 109.602 84.184C111.458 84.184 112.994 84.776 114.21 85.96C115.426 87.144 116.034 88.688 116.034 90.592V90.784C116.034 92.72 115.426 94.28 114.21 95.464ZM121.477 97L116.893 84.448H120.013L123.301 94.024L126.541 84.448H129.397L124.861 97H121.477ZM134.954 97L130.37 84.448H133.49L136.778 94.024L140.018 84.448H142.874L138.338 97H134.954ZM149.664 97L155.4 79.84H159.576L165.24 97H161.928L160.56 92.752H154.008L152.664 97H149.664ZM157.296 82.456L154.752 90.424H159.816L157.296 82.456ZM167.619 97V84.448H170.523V86.8C171.355 85.12 172.715 84.272 174.603 84.256V86.968C173.243 86.984 172.219 87.256 171.531 87.784C170.859 88.312 170.523 89.208 170.523 90.472V97H167.619ZM182.275 101.608C180.403 101.608 178.971 101.232 177.979 100.48C176.987 99.728 176.403 98.712 176.227 97.432H179.155C179.411 98.744 180.443 99.4 182.251 99.4C184.587 99.4 185.755 98.272 185.755 96.016V94.168C185.387 94.808 184.827 95.36 184.075 95.824C183.339 96.272 182.531 96.496 181.651 96.496C180.051 96.496 178.723 95.944 177.667 94.84C176.611 93.736 176.083 92.296 176.083 90.52V90.352C176.083 88.592 176.619 87.128 177.691 85.96C178.763 84.776 180.107 84.184 181.723 84.184C183.579 84.184 184.923 84.912 185.755 86.368V84.448H188.659V96.064C188.643 97.872 188.067 99.248 186.931 100.192C185.811 101.136 184.259 101.608 182.275 101.608ZM182.371 94.264C183.395 94.264 184.227 93.92 184.867 93.232C185.523 92.544 185.851 91.608 185.851 90.424V90.256C185.851 89.072 185.547 88.144 184.939 87.472C184.331 86.8 183.507 86.464 182.467 86.464C181.411 86.464 180.579 86.816 179.971 87.52C179.363 88.224 179.059 89.152 179.059 90.304V90.496C179.059 91.632 179.371 92.544 179.995 93.232C180.619 93.92 181.411 94.264 182.371 94.264ZM197.631 97.24C195.759 97.24 194.231 96.664 193.047 95.512C191.863 94.36 191.271 92.808 191.271 90.856V90.664C191.271 88.744 191.855 87.184 193.023 85.984C194.207 84.784 195.703 84.184 197.511 84.184C199.207 84.184 200.615 84.712 201.735 85.768C202.871 86.824 203.439 88.408 203.439 90.52V91.36H194.247C194.295 92.56 194.615 93.48 195.207 94.12C195.799 94.76 196.631 95.08 197.703 95.08C199.399 95.08 200.359 94.44 200.583 93.16H203.391C203.183 94.472 202.575 95.48 201.567 96.184C200.559 96.888 199.247 97.24 197.631 97.24ZM194.295 89.416H200.559C200.415 87.336 199.399 86.296 197.511 86.296C196.647 86.296 195.927 86.576 195.351 87.136C194.791 87.68 194.439 88.44 194.295 89.416ZM206.033 97V84.448H208.937V86.44C209.257 85.784 209.769 85.248 210.473 84.832C211.177 84.4 212.017 84.184 212.993 84.184C214.321 84.184 215.369 84.592 216.137 85.408C216.905 86.208 217.289 87.44 217.289 89.104V97H214.385V89.368C214.385 88.424 214.185 87.728 213.785 87.28C213.385 86.832 212.753 86.608 211.889 86.608C211.025 86.608 210.313 86.872 209.753 87.4C209.209 87.912 208.937 88.648 208.937 89.608V97H206.033Z" fill="#F4F4F4"/>
</g>
<defs>
<filter id="filter0_d_4_96" x="0.743896" y="0.57605" width="291.732" height="102.032" filterUnits="userSpaceOnUse" color-interpolation-filters="sRGB">
<feFlood flood-opacity="0" result="BackgroundImageFix"/>
<feColorMatrix in="SourceAlpha" type="matrix" values="0 0 0 0 0 0 0 0 0 0 0 0 0 0 0 0 0 0 127 0" result="hardAlpha"/>
<feOffset dx="2"/>
<feGaussianBlur stdDeviation="0.5"/>
<feComposite in2="hardAlpha" operator="out"/>
<feColorMatrix type="matrix" values="0 0 0 0 0 0 0 0 0 0 0 0 0 0 0 0 0 0 0.25 0"/>
<feBlend mode="normal" in2="BackgroundImageFix" result="effect1_dropShadow_4_96"/>
<feBlend mode="normal" in="SourceGraphic" in2="effect1_dropShadow_4_96" result="shape"/>
</filter>
</defs>
</svg>
